#!OML:ASF E:\emotionWalksFemale\Project 1\Capture day 1\Session 1\Female1.ASF
:FULLY-SPECIFIED
:DEGREES
69
root 8.30152 15.1802 42.3503 178.937 -6.21402 -179.538
lowerback 7.08972 2.20902 2.06561
upperback -3.97946 3.12586 5.60988e-005
thorax -8.06164 1.39098 -1.58817
lowerneck -3.47192 16.685 10.9256
upperneck 15.6195 22.5501 -7.33246
head 7.44297 10.8394 -1.98139
rclavicle -2.36678e-015 -3.37934e-015
rhumerus -47.4946 16.9334 -100.225
rradius 35.8278
rwrist 7.87809
rhand -2.13564 -57.3396
rfingers 7.12502
rthumb 23.5433 -85.9187
lclavicle -2.36678e-015 -3.37934e-015
lhumerus -42.8929 -9.69062 93.2679
lradius 36.3111
lwrist -15.3158
lhand -3.79789 -34.3625
lfingers 7.12502
lthumb 21.948 -5.58753
rfemur -4.81393 16.0095 24.4802
rtibia 26.4362
rfoot -25.8581 -33.0463
rtoes 16.4376
lfemur -8.84369 -23.9208 -23.5691
ltibia 28.2697
lfoot -23.4278 14.9729
ltoes -31.1219
70
root 8.29818 15.1654 42.3539 178.379 -6.22328 -179.519
lowerback 7.73258 2.16583 2.24667
upperback -3.85156 3.10986 -0.0441679
thorax -8.28791 1.37223 -1.76102
lowerneck -3.46063 16.6939 10.8609
upperneck 15.6227 22.54 -7.16388
head 7.41321 10.8453 -1.92727
rclavicle -5.01931e-015 -2.48481e-015
rhumerus -47.4436 16.7997 -100.252
rradius 35.7574
rwrist 8.01078
rhand -2.28244 -57.5165
rfingers 7.12502
rthumb 23.4025 -86.1136
lclavicle -5.01931e-015 -2.48481e-015
lhumerus -42.9285 -9.79873 93.2145
lradius 36.3173
lwrist -15.1183
lhand -3.57834 -34.5072
lfingers 7.12502
lthumb 22.1588 -5.75712
rfemur -4.17924 15.9213 24.6482
rtibia 26.3804
rfoot -25.8162 -33.0491
rtoes 15.9515
lfemur -8.22521 -23.9515 -23.8388
ltibia 28.3182
lfoot -23.4057 15.1741
ltoes -31.2926
71
root 8.29893 15.1689 42.352 178.496 -6.02762 -179.439
lowerback 7.64968 2.24282 2.24765
upperback -3.92859 3.21195 0.00356223
thorax -8.32114 1.42054 -1.72377
lowerneck -3.44201 16.7228 10.676
upperneck 15.6662 22.5506 -6.88136
head 7.36941 10.8618 -1.82332
rclavicle -2.83827e-014 0
rhumerus -47.5029 16.7496 -100.242
rradius 35.7463
rwrist 8.10392
rhand -2.36704 -57.804
rfingers 7.12502
rthumb 23.3213 -86.4114
lclavicle -2.83827e-014 0
lhumerus -42.9746 -9.81207 93.2563
lradius 36.2677
lwrist -15.1097
lhand -3.45579 -34.4844
lfingers 7.12502
lthumb 22.2765 -5.74836
rfemur -4.32844 15.98 24.6865
rtibia 26.3451
rfoot -25.5916 -32.8339
rtoes 16.2283
lfemur -8.32042 -23.8912 -23.7113
ltibia 28.3239
lfoot -23.4111 15.3833
ltoes -31.4805
72
root 8.29837 15.1721 42.3479 178.52 -6.50344 -179.386
lowerback 7.55146 2.06599 2.44054
upperback -3.94101 2.98704 -0.0720515
thorax -8.27319 1.29836 -1.87515
lowerneck -3.40626 16.7278 10.723
upperneck 15.6165 22.5414 -6.80421
head 7.34253 10.8699 -1.81226
rclavicle -3.7738e-015 -9.11925e-015
rhumerus -47.5658 16.7498 -100.39
rradius 35.7359
rwrist 7.97967
rhand -2.16484 -57.5606
rfingers 7.12502
rthumb 23.5153 -86.1432
lclavicle -3.7738e-015 -9.11925e-015
lhumerus -42.9967 -9.82572 93.1143
lradius 36.3912
lwrist -14.865
lhand -2.93393 -34.3935
lfingers 7.12502
lthumb 22.7774 -5.71821
rfemur -4.23562 15.8967 24.8127
rtibia 26.3357
rfoot -25.9603 -32.9862
rtoes 17.0303
lfemur -8.43229 -24.0394 -23.6012
ltibia 28.3704
lfoot -23.4178 15.0321
ltoes -31.0838
73
root 8.29782 15.1762 42.3501 178.687 -6.24533 -179.373
lowerback 7.40264 2.16922 2.32162
upperback -3.97963 3.1121 0.0174648
thorax -8.23317 1.36792 -1.72576
lowerneck -3.37473 16.6909 10.7491
upperneck 15.5819 22.5222 -7.00558
head 7.35147 10.8473 -1.88055
rclavicle 1.3623e-014 -6.4605e-016
rhumerus -47.5708 16.9313 -100.317
rradius 35.7238
rwrist 7.63108
rhand -2.01701 -57.2327
rfingers 7.12502
rthumb 23.6571 -85.7971
lclavicle 1.3623e-014 -6.4605e-016
lhumerus -42.96 -9.70149 93.1446
lradius 36.5846
lwrist -14.2591
lhand -1.80864 -34.4594
lfingers 7.12502
lthumb 23.8569 -5.92101
rfemur -4.46679 15.9159 24.7352
rtibia 26.308
rfoot -25.8151 -32.963
rtoes 16.0436
lfemur -8.61804 -24.0026 -23.513
ltibia 28.3735
lfoot -23.5068 15.0072
ltoes -30.215
74
root 8.29556 15.1713 42.3539 178.549 -6.20688 -179.33
lowerback 7.52869 2.16727 2.48861
upperback -3.92076 3.13046 -0.0299646
thorax -8.23127 1.36809 -1.87611
lowerneck -3.35869 16.6824 10.8237
upperneck 15.5418 22.5112 -7.0499
head 7.34875 10.8451 -1.90597
rclavicle 2.94574e-014 3.37934e-015
rhumerus -47.4334 16.9442 -100.365
rradius 35.6651
rwrist 7.60431
rhand -2.29732 -57.3808
rfingers 7.12502
rthumb 23.3882 -85.9796
lclavicle 2.94574e-014 3.37934e-015
lhumerus -43.0121 -10.01 93.2135
lradius 36.593
lwrist -14.4322
lhand -2.7768 -34.2133
lfingers 7.12502
lthumb 22.9282 -5.55664
rfemur -4.33964 15.8774 24.8006
rtibia 26.292
rfoot -25.7121 -33.087
rtoes 15.5007
lfemur -8.42645 -23.9072 -23.5512
ltibia 28.3736
lfoot -23.3719 15.045
ltoes -30.8831
